<svg width="31" height="35" viewBox="0 0 31 35" fill="none" xmlns="http://www.w3.org/2000/svg">
<path d="M18.0229 30.625C17.7665 31.067 17.3985 31.4339 16.9557 31.6889C16.513 31.9439 16.011 32.0782 15.5 32.0782C14.989 32.0782 14.487 31.9439 14.0443 31.6889C13.6015 31.4339 13.2335 31.067 12.9771 30.625M24.25 11.6667C24.25 9.34603 23.3281 7.12043 21.6872 5.47949C20.0462 3.83854 17.8206 2.91667 15.5 2.91667C13.1794 2.91667 10.9538 3.83854 9.31282 5.47949C7.67187 7.12043 6.75 9.34603 6.75 11.6667C6.75 21.875 2.375 24.7917 2.375 24.7917H28.625C28.625 24.7917 24.25 21.875 24.25 11.6667Z" stroke="#0058A3" stroke-width="4" stroke-linecap="round" stroke-linejoin="round"/>
</svg>
